<svg width="23" height="20" viewBox="0 0 23 20" xmlns="http://www.w3.org/2000/svg">
	<path d="M17.8333 8.88889C17.8333 7.82333 17.0778 6.93222 16.0767 6.71778C16.4767 6.05 16.7222 5.27778 16.7222 4.44444C16.7222 1.99333 14.7289 0 12.2778 0C10.5933 0 9.14221 0.952222 8.38887 2.33778C7.63554 0.952222 6.18443 0 4.49999 0C2.04888 0 0.055542 1.99333 0.055542 4.44444C0.055542 5.44667 0.402209 6.36222 0.96332 7.10667C0.682797 7.31169 0.454456 7.57984 0.296756 7.88945C0.139057 8.19906 0.0564249 8.54143 0.055542 8.88889V17.7778C0.055542 19.0033 1.05221 20 2.27776 20H15.6111C16.8367 20 17.8333 19.0033 17.8333 17.7778V14.8478L22.2778 17.07V9.29222L17.8333 11.5144V8.88889ZM12.2778 2.22222C13.5033 2.22222 14.5 3.21889 14.5 4.44444C14.5 5.67 13.5033 6.66667 12.2778 6.66667C11.0522 6.66667 10.0555 5.67 10.0555 4.44444C10.0555 3.21889 11.0522 2.22222 12.2778 2.22222ZM4.49999 2.22222C5.72554 2.22222 6.72221 3.21889 6.72221 4.44444C6.72221 5.67 5.72554 6.66667 4.49999 6.66667C3.27443 6.66667 2.27776 5.67 2.27776 4.44444C2.27776 3.21889 3.27443 2.22222 4.49999 2.22222Z"/>
	</svg>
