<svg width="23" height="20" viewBox="0 0 23 20" xmlns="http://www.w3.org/2000/svg">
	<path d="M20.7778 0H2.99999C1.77444 0 0.777771 0.996667 0.777771 2.22222V17.7778C0.777771 19.0033 1.77444 20 2.99999 20H20.7778C22.0033 20 23 19.0033 23 17.7778V2.22222C23 0.996667 22.0033 0 20.7778 0ZM20.7789 6.66667C20.7778 6.66667 20.7778 6.66667 20.7789 6.66667H20.2611L17.2978 2.22222H20.7778L20.7789 6.66667ZM14.7055 6.66667L11.7422 2.22222H14.6267L17.59 6.66667H14.7055ZM12.0344 6.66667H9.14999L6.18777 2.22222H9.07222L12.0344 6.66667ZM2.99999 2.22222H3.51666L6.47999 6.66667H2.99999V2.22222Z"/>
	</svg>
