<svg width="27" height="20" viewBox="0 0 27 20"  xmlns="http://www.w3.org/2000/svg">
	<path d="M7.5022 0.268739L0.968197 8.72499C0.886022 8.8376 0.840118 8.97138 0.836304 9.10937C0.836304 9.27927 0.905783 9.44222 1.02946 9.56236C1.15313 9.6825 1.32087 9.74999 1.49577 9.74999H2.81471V19.3466C2.81471 19.5199 2.88557 19.6861 3.01172 19.8086C3.13787 19.9312 3.30896 20 3.48736 20H10.0557C10.144 20 10.2315 19.9831 10.3131 19.9503C10.3947 19.9174 10.4688 19.8693 10.5313 19.8086C10.5938 19.7479 10.6433 19.6759 10.6771 19.5966C10.7109 19.5173 10.7283 19.4324 10.7283 19.3466V8.38418C10.7291 8.22633 10.7891 8.07417 10.8971 7.95624L13.3662 5.90624L8.61802 0.309739C8.55999 0.218594 8.47978 0.142711 8.38445 0.0887783C8.28912 0.0348453 8.18159 0.00451774 8.07135 0.000467015C7.96111 -0.00358371 7.85154 0.018767 7.75228 0.0655501C7.65303 0.112333 7.56715 0.182112 7.5022 0.268739V0.268739ZM8.09044 12.3125H5.45257V9.74999H8.09044V12.3125ZM25.8961 2.06249H24.5771C24.4022 2.06249 24.2345 2.12998 24.1108 2.25013C23.9871 2.37027 23.9177 2.53321 23.9177 2.70312V7.69999L20.3776 4.94787C20.2593 4.85596 20.1123 4.8059 19.9609 4.8059C19.8094 4.8059 19.6624 4.85596 19.5441 4.94787L13.63 9.56037C13.5509 9.62175 13.4873 9.69979 13.4439 9.78857C13.4005 9.87736 13.3784 9.97458 13.3794 10.0729V19.3517C13.3793 19.5214 13.4478 19.6844 13.5702 19.8056C13.6925 19.9269 13.8589 19.9966 14.0336 20H17.9745C18.1515 20 18.3213 19.9317 18.4464 19.8101C18.5716 19.6885 18.6419 19.5236 18.6419 19.3517V14.875H21.2798V19.3517C21.2798 19.5236 21.3501 19.6885 21.4753 19.8101C21.6004 19.9317 21.7702 20 21.9472 20H25.8881C26.0651 20 26.2349 19.9317 26.3601 19.8101C26.4852 19.6885 26.5555 19.5236 26.5555 19.3517V2.70312C26.5555 2.53321 26.486 2.37027 26.3624 2.25013C26.2387 2.12998 26.071 2.06249 25.8961 2.06249ZM18.6419 12.3125H16.0041V9.74999H18.6419V12.3125ZM23.9177 12.3125H21.2798V9.74999H23.9177V12.3125Z"/>
	</svg>
